<?xml version="1.0" standalone="no"?>
<!DOCTYPE svg PUBLIC "-//W3C//DTD SVG 20010904//EN"
 "http://www.w3.org/TR/2001/REC-SVG-20010904/DTD/svg10.dtd">
<svg version="1.0" xmlns="http://www.w3.org/2000/svg"
 width="300.000000pt" height="265.000000pt" viewBox="0 0 300.000000 265.000000"
 preserveAspectRatio="xMidYMid meet">
<metadata>
Created by potrace 1.10, written by Peter Selinger 2001-2011
</metadata>
<g transform="translate(0.000000,265.000000) scale(0.100000,-0.100000)"
fill="#000000" stroke="none">
<path d="M1695 2143 c-643 -40 -1025 -282 -1174 -743 -63 -197 -72 -281 -78
-742 l-5 -418 458 0 c565 0 712 14 944 90 351 115 586 353 683 690 55 189 60
244 64 703 l5 427 -424 -2 c-232 -1 -445 -3 -473 -5z m853 -32 c11 -6 13 -78
13 -352 -1 -346 -3 -397 -23 -544 -19 -144 -83 -341 -138 -425 -9 -14 -28 -42
-42 -63 -120 -180 -336 -323 -602 -396 -74 -21 -225 -46 -333 -56 -87 -7 -933
-8 -941 0 -9 9 -9 596 0 745 7 125 23 217 53 320 9 30 18 62 20 71 4 19 44
114 60 144 103 191 310 372 505 441 25 9 54 20 65 25 82 34 269 74 395 84 47
4 87 9 89 11 8 7 867 3 879 -5z"/>
<path d="M1625 1690 c-38 -3 -77 -9 -85 -12 -8 -4 -39 -9 -68 -13 -124 -13
-309 -93 -383 -165 -56 -54 -124 -158 -133 -202 -2 -7 -6 -20 -9 -28 -11 -26
-36 -133 -42 -180 -4 -25 -9 -117 -12 -205 -7 -212 -18 -200 201 -200 291 1
446 18 604 67 319 98 451 325 452 774 0 124 -2 143 -18 157 -16 15 -46 17
-228 15 -115 -1 -240 -4 -279 -8z m505 -92 c0 -123 -19 -307 -40 -396 -29
-123 -72 -206 -144 -278 -144 -144 -354 -200 -788 -211 l-238 -6 0 144 c1 393
94 603 314 709 116 56 205 78 421 103 17 2 130 5 253 6 l222 1 0 -72z"/>
</g>
</svg>
